<?xml version="1.0" standalone="no"?>
<!DOCTYPE svg PUBLIC "-//W3C//DTD SVG 20010904//EN"
 "http://www.w3.org/TR/2001/REC-SVG-20010904/DTD/svg10.dtd">
<svg version="1.0" xmlns="http://www.w3.org/2000/svg"
 width="1024.000000pt" height="1024.000000pt" viewBox="0 0 1024.000000 1024.000000"
 preserveAspectRatio="xMidYMid meet">

<g transform="translate(0.000000,1024.000000) scale(0.100000,-0.100000)"
fill="#000000" stroke="none">
<path d="M4870 8400 c-519 -71 -978 -385 -1233 -843 -185 -333 -246 -749 -167
-1136 20 -98 67 -247 97 -305 12 -23 13 -39 4 -90 -21 -111 -18 -204 7 -271
12 -33 27 -78 32 -101 6 -26 30 -64 69 -109 86 -99 87 -102 68 -181 -9 -37
-46 -140 -82 -229 -84 -211 -102 -281 -114 -443 -6 -74 -13 -137 -16 -141 -2
-5 27 -52 66 -107 39 -54 93 -142 120 -196 104 -202 175 -282 358 -402 55 -36
105 -75 111 -86 6 -11 22 -77 36 -147 30 -152 72 -263 165 -441 105 -201 107
-211 115 -473 l6 -224 -61 -240 c-53 -211 -121 -518 -121 -545 0 -6 279 -10
750 -10 427 0 750 4 750 9 0 28 -88 412 -128 561 l-47 175 1 240 c0 289 2 295
119 520 96 184 116 239 156 424 16 75 36 142 45 153 10 10 63 48 118 85 56 37
135 101 177 142 65 66 85 95 149 220 40 79 99 179 131 221 67 91 82 117 74
130 -4 6 -10 65 -16 132 -11 151 -33 239 -109 433 -32 83 -68 183 -79 224 -24
88 -22 94 70 201 50 58 61 79 70 125 6 31 21 84 33 118 23 60 23 65 10 162 -7
55 -14 107 -16 115 -2 8 12 53 31 100 230 581 96 1265 -336 1720 -244 257
-528 415 -879 490 -112 24 -420 35 -534 20z m480 -64 c500 -92 922 -403 1149
-846 68 -134 111 -253 142 -400 31 -141 33 -456 6 -595 -38 -186 -114 -386
-166 -434 -20 -19 -36 -49 -47 -89 l-17 -61 -47 6 c-42 5 -48 3 -72 -25 -15
-18 -30 -54 -37 -92 -10 -51 -20 -71 -55 -109 -24 -25 -51 -61 -60 -78 -33
-65 -245 -217 -402 -289 -103 -47 -243 -91 -368 -116 -146 -30 -420 -31 -571
-4 -193 35 -415 120 -565 216 -133 86 -198 141 -215 183 -9 22 -36 60 -60 83
-26 27 -46 56 -50 76 -23 122 -51 165 -102 155 -68 -13 -66 -14 -75 28 -13 64
-38 112 -66 126 -48 26 -120 218 -159 422 -27 143 -24 438 6 577 105 494 398
880 841 1109 177 91 366 149 570 175 70 8 337 -3 420 -18z m-1697 -2590 c15
-49 26 -91 24 -93 -2 -2 -20 46 -41 107 -35 105 -36 114 -29 197 l8 88 5 -105
c4 -73 14 -132 33 -194z m2906 174 c0 -49 -8 -91 -34 -170 -18 -58 -34 -95
-34 -83 -1 12 10 57 24 100 19 60 25 102 26 178 2 110 16 90 18 -25z m-2873
65 c7 -19 14 -49 14 -66 0 -18 18 -71 39 -118 22 -47 43 -104 47 -125 l7 -40
-34 20 c-38 23 -46 36 -83 149 -31 96 -36 215 -9 215 2 0 11 -16 19 -35z
m2824 -39 c0 -54 -7 -91 -25 -140 -14 -37 -25 -76 -25 -87 0 -22 -45 -69 -67
-69 -22 0 -8 70 32 160 19 41 36 93 40 115 7 50 25 95 36 95 5 0 9 -33 9 -74z
m-2667 -84 c9 -10 23 -51 32 -92 12 -59 23 -83 49 -110 18 -19 40 -46 50 -60
20 -30 21 -83 2 -99 -12 -10 -21 -2 -48 46 -24 41 -45 63 -71 76 -33 15 -37
21 -37 55 0 20 -4 52 -9 70 -9 29 -7 33 15 38 13 3 24 11 24 16 0 6 -11 8 -24
4 -19 -5 -25 -1 -29 16 -6 22 8 58 22 58 4 0 15 -8 24 -18z m2525 -20 c3 -31
-3 -37 -35 -33 -21 3 -15 -16 7 -22 18 -5 20 -11 14 -49 -16 -105 -19 -113
-46 -118 -20 -4 -38 -23 -68 -68 -43 -68 -63 -75 -68 -24 -4 38 15 75 66 129
32 32 43 53 51 100 16 81 37 125 59 121 11 -2 18 -14 20 -36z m-2250 -437
c239 -179 525 -287 841 -316 357 -32 786 90 1072 306 46 35 87 60 91 56 19
-17 49 -135 65 -246 15 -108 15 -133 3 -211 -16 -103 -18 -177 -7 -255 l8 -56
-53 -17 c-107 -35 -203 -118 -254 -218 -22 -44 -27 -48 -62 -48 -110 -1 -252
-59 -328 -135 l-52 -52 -53 17 -54 16 -9 67 c-11 84 -2 133 24 140 27 7 61 86
67 158 6 63 -5 89 -37 89 -15 0 -18 12 -22 78 -7 121 -53 192 -158 241 -113
53 -256 26 -338 -63 -47 -51 -65 -101 -66 -182 -1 -57 -3 -62 -28 -72 -35 -13
-45 -51 -28 -116 18 -70 46 -123 70 -131 18 -6 20 -15 20 -99 0 -105 -1 -107
-71 -124 l-46 -12 -54 50 c-30 27 -82 63 -116 80 -61 30 -171 59 -225 60 -21
0 -32 10 -54 48 -59 101 -158 185 -252 213 -37 11 -42 16 -37 33 15 50 16 195
2 281 -15 91 -14 107 4 250 10 82 47 225 58 225 3 0 39 -25 79 -55z m-168 -17
c0 -2 -9 -48 -19 -103 -30 -156 -34 -230 -18 -325 18 -101 13 -169 -18 -267
l-22 -72 53 0 c63 0 141 -32 196 -80 34 -29 98 -115 98 -131 0 -3 -24 -14 -52
-23 -29 -9 -66 -25 -83 -35 l-30 -19 -33 49 c-36 54 -129 120 -195 140 -24 7
-52 27 -73 52 -41 48 -43 84 -15 238 22 118 35 215 27 207 -3 -2 -20 -61 -39
-129 -30 -109 -35 -120 -40 -91 -20 98 -3 174 83 376 58 137 68 144 45 31 -8
-41 14 3 35 69 21 69 56 115 86 115 8 0 14 -1 14 -2z m2321 -27 c9 -9 27 -47
39 -86 28 -88 36 -97 33 -37 l-3 47 35 -74 c83 -175 125 -359 97 -430 -7 -21
-13 -7 -37 90 -15 63 -31 117 -34 122 -10 11 6 -137 24 -221 33 -158 16 -194
-123 -262 -100 -50 -141 -83 -178 -146 l-24 -41 -66 34 c-37 18 -73 33 -80 33
-25 0 -14 38 26 88 73 93 164 145 252 145 l56 -1 -18 52 c-35 102 -42 216 -20
323 14 64 8 142 -21 285 -10 53 -19 99 -19 103 0 11 44 -6 61 -24z m-1074
-399 c62 -32 118 -112 78 -112 -8 0 -15 -4 -15 -10 0 -5 -16 -28 -36 -50 -40
-44 -82 -60 -157 -60 -62 0 -107 19 -140 61 -14 19 -34 42 -42 52 -31 35 17
105 92 133 54 20 167 13 220 -14z m1347 -332 l8 -65 -52 -50 -51 -50 21 47
c11 27 25 87 30 135 6 49 13 104 17 123 8 39 6 48 27 -140z m-2886 17 c6 -64
16 -109 31 -137 12 -24 21 -44 19 -45 -2 -1 -25 22 -51 51 l-49 54 13 107 c14
122 23 115 37 -30z m1147 -24 c3 -21 8 -48 11 -60 6 -32 -11 -29 -24 5 -19 48
-23 72 -17 82 12 20 24 9 30 -27z m570 -21 c-3 -23 -14 -47 -22 -54 -14 -11
-15 -7 -8 42 8 64 14 75 27 62 6 -6 7 -27 3 -50z m969 -208 c-24 -36 -44 -71
-44 -78 0 -22 -58 -94 -97 -120 -44 -30 -52 -23 -54 47 -2 39 3 52 35 91 20
25 50 55 67 67 27 19 112 57 131 59 3 0 -14 -30 -38 -66z m-2505 37 c59 -22
88 -44 137 -102 34 -41 36 -45 29 -99 -4 -30 -9 -57 -11 -59 -2 -2 -26 15 -53
39 -36 29 -60 61 -82 108 -17 37 -45 82 -62 100 -35 37 -27 40 42 13z m610
-110 c74 -23 143 -62 171 -98 l20 -26 -26 -18 c-27 -17 -28 -17 -67 16 -39 34
-81 57 -127 70 -22 6 -20 3 13 -25 32 -27 67 -76 67 -95 0 -3 -17 3 -37 14
-41 20 -103 36 -103 27 0 -3 18 -22 40 -42 22 -20 40 -40 40 -45 0 -16 -68
-10 -122 11 -64 24 -64 24 -47 4 25 -30 153 -84 201 -84 10 0 25 15 34 33 18
35 53 77 65 77 4 0 5 -9 2 -20 -7 -25 -7 -25 62 5 31 14 91 35 133 46 92 25
106 36 127 100 9 27 20 51 25 54 4 2 40 -7 81 -20 88 -30 95 -30 150 -5 71 32
81 28 114 -42 l30 -62 110 -36 c61 -20 127 -44 148 -54 20 -9 37 -13 37 -9 0
16 -41 74 -55 79 -24 10 -18 30 20 63 49 43 103 68 182 87 91 21 226 16 273
-11 58 -35 59 -44 10 -140 -68 -130 -100 -163 -239 -234 -132 -69 -161 -93
-145 -119 10 -16 89 -74 116 -85 9 -4 10 -8 2 -14 -6 -4 -29 -34 -53 -65 -39
-55 -44 -58 -84 -58 -62 0 -106 34 -128 98 -10 30 -7 38 34 105 42 67 74 152
66 176 -2 6 -38 -11 -79 -38 -76 -49 -155 -81 -197 -81 -13 0 -23 -3 -23 -7 0
-5 21 -42 45 -83 62 -102 60 -116 -24 -206 -37 -40 -86 -100 -107 -133 -21
-34 -42 -61 -45 -61 -15 0 -31 95 -39 247 -10 172 -25 273 -40 273 -18 0 -22
-29 -49 -356 -5 -61 -15 -123 -23 -138 l-14 -26 -52 73 c-28 40 -76 97 -107
127 -73 72 -74 104 -10 204 25 38 43 72 40 76 -3 4 -23 10 -46 14 -43 7 -144
54 -194 91 -58 42 -58 42 -53 -8 4 -30 22 -74 52 -125 25 -43 46 -90 46 -103
0 -56 -66 -119 -124 -119 -41 0 -54 10 -100 75 l-44 63 64 40 c35 23 64 47 64
55 0 22 -27 40 -147 101 -88 45 -123 69 -163 113 -58 64 -134 205 -125 233 7
24 45 48 92 60 53 13 190 3 262 -19z m3 -803 c41 -26 73 -29 134 -9 67 21 83
18 57 -11 -29 -33 -89 -58 -137 -58 -71 0 -131 64 -151 160 l-7 35 41 -51 c22
-28 51 -58 63 -66z m1344 58 c-35 -116 -126 -165 -221 -120 -34 16 -82 60 -74
68 3 3 35 -4 73 -16 66 -20 68 -20 108 -2 22 10 58 40 81 66 22 26 41 48 43
48 2 0 -3 -20 -10 -44z m-756 -804 c6 -106 13 -199 17 -207 4 -13 -9 -15 -79
-15 l-84 0 -30 65 -31 65 48 0 c66 0 68 13 6 33 -57 18 -117 52 -117 65 0 5
40 26 90 46 88 37 128 69 153 123 6 13 11 22 13 21 1 -2 7 -90 14 -196z m137
127 c23 -27 33 -32 151 -84 34 -15 62 -31 62 -35 0 -10 -87 -55 -135 -70 -34
-11 -37 -14 -20 -21 11 -4 35 -8 53 -8 17 -1 32 -3 32 -6 0 -3 -14 -32 -30
-65 l-30 -60 -81 0 -82 0 7 43 c3 23 9 118 12 211 7 160 8 168 23 146 9 -13
26 -36 38 -51z m-519 -176 c49 -30 83 -67 108 -115 13 -26 24 -52 24 -58 0 -5
-21 -10 -46 -10 -40 0 -51 5 -85 39 -37 36 -39 42 -39 100 0 33 2 61 5 61 3 0
18 -8 33 -17z m877 -50 c-10 -96 -55 -138 -139 -131 l-36 3 33 65 c27 54 41
70 87 97 30 18 56 33 58 33 2 0 0 -30 -3 -67z"/>
<path d="M4940 8249 c-251 -24 -519 -126 -729 -276 -579 -415 -777 -1171 -476
-1819 201 -433 600 -744 1080 -841 139 -28 416 -25 553 5 290 65 519 184 719
376 251 239 398 515 459 856 23 127 23 364 1 487 -118 655 -662 1150 -1332
1213 -122 11 -151 11 -275 -1z m381 -75 c605 -112 1068 -572 1176 -1167 23
-125 22 -361 -1 -486 -98 -534 -485 -975 -991 -1130 -158 -48 -263 -64 -420
-64 -323 1 -622 101 -869 291 -489 376 -684 982 -505 1567 68 219 183 410 349
575 216 216 451 343 745 405 138 30 385 34 516 9z"/>
<path d="M4896 7735 c-104 -22 -162 -43 -267 -97 -233 -121 -411 -337 -483
-590 -156 -542 149 -1087 689 -1235 88 -24 118 -27 250 -27 132 0 162 3 247
27 345 94 603 357 696 707 21 79 25 119 26 240 1 149 -8 213 -46 325 -103 303
-350 537 -663 630 -75 23 -114 28 -235 31 -100 2 -166 -1 -214 -11z m387 -45
c304 -67 577 -308 681 -598 187 -524 -116 -1101 -654 -1244 -111 -30 -338 -32
-440 -5 -254 69 -435 197 -571 404 -155 237 -195 539 -107 813 103 321 368
561 703 635 94 20 284 18 388 -5z"/>
<path d="M4875 7670 c-520 -119 -831 -669 -668 -1184 95 -303 328 -529 634
-616 96 -27 281 -37 384 -21 323 53 597 276 712 581 67 180 80 396 34 575 -26
103 -107 262 -174 345 -129 158 -336 285 -529 324 -105 22 -290 20 -393 -4z
m420 -30 c329 -84 592 -355 659 -683 21 -98 21 -276 0 -375 -58 -281 -242
-512 -507 -637 -225 -106 -503 -106 -733 0 -320 147 -524 469 -524 825 0 582
547 1012 1105 870z"/>
<path d="M4943 7446 c-29 -13 -33 -19 -33 -56 0 -45 20 -61 52 -41 20 13 45 4
69 -25 13 -15 9 -16 -51 -12 -36 3 -66 10 -68 16 -4 14 -32 16 -32 3 0 -5 14
-21 31 -35 25 -22 41 -26 90 -26 32 0 59 -4 59 -9 0 -13 -49 -82 -96 -135 -24
-26 -44 -53 -44 -60 0 -6 -4 -17 -9 -24 -11 -17 -108 16 -158 54 -42 32 -76
102 -68 137 6 22 11 24 48 20 35 -4 47 -1 70 21 40 37 36 66 -13 99 -28 19
-78 22 -133 6 -27 -7 -48 -7 -68 0 -36 12 -40 -8 -8 -40 19 -19 20 -24 8 -45
-7 -14 -72 -83 -145 -154 -123 -120 -131 -130 -108 -136 52 -13 90 4 155 71
59 61 79 75 79 58 0 -8 -162 -211 -246 -310 -48 -56 -45 -69 11 -59 50 10 88
46 184 176 46 63 86 109 88 103 4 -11 -161 -280 -258 -425 -22 -31 -39 -59
-39 -62 0 -14 58 -4 87 14 38 23 54 46 171 250 49 85 94 156 100 158 6 2 -52
-128 -128 -289 -77 -160 -140 -294 -140 -295 0 -13 53 0 81 19 33 22 55 64
221 436 21 46 42 80 47 76 12 -7 8 -17 -116 -318 -47 -114 -83 -210 -80 -213
11 -11 77 18 95 41 10 12 54 118 97 234 72 192 95 239 95 196 0 -8 -25 -84
-56 -168 -30 -83 -58 -160 -61 -169 -7 -23 19 -24 58 -1 30 18 58 79 110 241
12 39 26 72 30 72 3 0 12 -27 19 -60 12 -55 11 -62 -9 -100 -35 -67 -108 -173
-140 -204 -36 -35 -39 -46 -11 -46 29 0 25 -11 -27 -68 -47 -52 -49 -53 -83
-42 -51 15 -78 12 -100 -10 -24 -24 -29 -60 -6 -41 9 8 28 10 50 5 l36 -6 -32
-17 c-36 -17 -49 -60 -27 -87 14 -18 30 -18 23 -1 -2 8 13 24 36 39 22 15 40
25 40 23 0 -2 -5 -16 -10 -30 -10 -27 1 -62 24 -77 18 -13 24 -9 24 15 0 49
16 109 29 114 8 3 33 0 55 -6 48 -15 66 -4 49 28 -8 14 -21 21 -41 21 -16 0
-31 4 -34 8 -3 5 17 30 44 57 l48 48 13 -42 c7 -22 15 -41 18 -41 3 0 24 50
46 111 21 61 43 113 48 116 6 3 8 -40 6 -103 -4 -91 -8 -117 -29 -158 -30 -59
-67 -89 -109 -88 -39 1 -41 -19 -5 -47 32 -25 90 -28 122 -5 13 9 24 14 25 13
1 -2 15 -30 30 -61 15 -32 31 -58 36 -58 6 0 23 27 38 59 28 58 29 59 53 45
40 -21 93 -18 118 9 30 31 28 42 -8 43 -43 2 -79 30 -101 80 -26 58 -44 201
-32 251 l9 38 44 -118 c24 -65 46 -120 50 -122 4 -2 13 14 19 37 l13 41 49
-49 c27 -26 46 -51 41 -55 -4 -4 -20 -9 -36 -11 -33 -3 -52 -27 -42 -53 4 -12
10 -14 19 -7 6 5 31 13 54 17 45 7 44 9 59 -70 4 -22 6 -46 5 -54 -2 -12 1
-12 21 1 19 13 23 24 21 61 l-1 45 39 -26 c21 -14 39 -32 39 -40 0 -31 25 -3
28 31 3 35 1 39 -38 56 l-41 18 43 6 c24 3 48 1 55 -5 10 -8 13 -5 13 11 0 11
-11 28 -25 37 -21 14 -32 15 -69 5 -68 -17 -72 -15 -115 46 -46 63 -50 77 -21
68 29 -9 25 7 -11 41 -37 35 -136 183 -151 224 -10 30 6 140 20 140 4 0 27
-60 51 -132 24 -73 50 -144 58 -156 14 -23 80 -58 90 -48 3 3 -7 38 -22 78
-43 114 -95 271 -95 285 0 28 19 11 33 -29 80 -226 143 -387 160 -405 21 -23
84 -49 94 -39 3 3 -28 88 -70 188 -93 226 -127 316 -127 336 0 31 19 -6 120
-233 59 -133 113 -242 129 -258 16 -16 43 -30 64 -34 34 -5 37 -4 29 13 -15
34 -72 155 -159 334 -107 219 -115 240 -104 240 5 0 49 -69 96 -152 112 -197
133 -228 174 -255 35 -24 81 -31 81 -12 0 6 -11 25 -24 42 -31 42 -276 433
-276 441 0 22 29 -9 111 -120 51 -69 104 -131 118 -138 37 -19 77 -27 96 -20
14 6 10 14 -23 48 -56 60 -252 305 -252 316 0 20 17 9 70 -46 30 -30 67 -62
82 -70 29 -15 94 -19 101 -6 2 4 -30 39 -72 77 -42 39 -109 105 -149 149 l-73
78 25 27 c14 15 26 30 26 33 0 4 -21 6 -47 6 -27 -1 -76 3 -110 7 -58 7 -63 6
-87 -18 -33 -33 -33 -62 0 -92 20 -19 38 -25 70 -25 l44 0 0 -37 c0 -41 -22
-81 -60 -111 -38 -29 -103 -60 -135 -64 -23 -2 -29 2 -36 25 -6 23 -4 27 12
27 19 0 19 1 -1 40 -24 47 -25 60 -5 60 19 0 19 3 -5 47 -24 45 -26 67 -5 59
20 -7 19 2 -10 48 l-24 40 25 22 c13 13 24 27 24 31 0 4 -28 9 -62 9 -35 1
-97 4 -138 8 -56 5 -83 3 -107 -8z m130 -41 c-3 -17 -30 -17 -37 0 -4 13 -1
16 17 13 12 -2 21 -7 20 -13z"/>
<path d="M5684 4245 c-27 -14 -65 -40 -83 -59 l-33 -34 27 -18 c15 -10 36 -37
46 -61 16 -37 22 -43 48 -43 42 0 135 37 172 67 16 14 28 28 25 31 -3 3 -11 0
-18 -6 -20 -16 -127 -44 -144 -38 -22 9 -1 41 48 74 55 36 29 41 -51 8 -61
-25 -61 -25 -61 -4 0 12 20 40 45 65 52 50 48 53 -21 18z"/>
<path d="M5120 4093 c0 -72 -14 -103 -44 -103 -29 0 -46 25 -46 69 0 40 -10
39 -39 -6 l-24 -37 51 -48 c28 -26 56 -48 62 -48 7 0 34 23 61 51 l50 52 -21
22 c-12 13 -28 40 -35 62 l-14 38 -1 -52z"/>
</g>
</svg>
