<?xml version="1.0" encoding="UTF-8" standalone="no"?>
<!-- Created with Inkscape (http://www.inkscape.org/) -->

<svg
   version="1.1"
   id="svg1"
   width="720"
   height="720"
   viewBox="0 0 720 720"
   xmlns="http://www.w3.org/2000/svg"
   xmlns:svg="http://www.w3.org/2000/svg">
  <defs
     id="defs1" />
  <g
     id="g1">
    <path
       style="fill:#000000;stroke-width:1.33952"
       d="M 327.88694,717.47483 C 282.79951,712.82037 242.23734,700.93797 201.95697,680.58454 142.45476,650.51843 91.695907,603.72481 55.747517,545.79684 5.8482471,465.38818 -9.1973229,371.21417 12.443137,274.74386 18.412167,248.13474 27.036247,224.71173 41.448077,195.9664 94.677187,89.797608 203.56161,15.739295 322.52835,4.7881624 c 21.24843,-1.955962 69.15094,-0.822091 89.75648,2.124573 91.24901,13.0489116 176.07483,61.7041766 229.47502,131.6246346 34.95643,45.7708 60.20283,102.64272 69.71066,157.03541 3.30506,18.90777 3.73302,22.66784 4.87504,42.83299 3.58076,63.22677 -8.72887,124.12788 -36.27791,179.4828 -17.80158,35.76914 -38.64719,64.55465 -69.25204,95.62953 -55.11879,55.96527 -121.12723,89.57364 -199.20059,101.42347 -19.93353,3.02547 -65.58138,4.40659 -83.72807,2.53326 z m 62.29368,-13.44807 c 46.24306,-3.95966 91.08631,-17.12534 130.61577,-38.34794 12.54226,-6.73368 35.59944,-22.17552 50.20534,-33.62346 14.04218,-11.00611 50.98924,-48.73654 61.93071,-63.24382 38.31534,-50.80218 62.06209,-109.92886 68.91356,-171.58688 2.33291,-20.99439 1.96241,-61.81635 -0.74024,-81.5608 -7.50084,-54.79788 -26.44802,-105.72072 -55.63709,-149.53139 -13.9569,-20.94828 -22.64161,-31.631 -39.97632,-49.17325 C 552.54021,63.373145 485.75115,30.672124 404.91676,18.754147 383.16417,15.54701 336.61336,15.568074 313.19772,18.795657 238.23622,29.128253 172.88444,60.612911 119.93469,111.90438 66.577137,163.59088 33.855657,225.75193 21.136747,299.59098 4.7477171,394.7368 27.534967,489.89077 84.860617,565.6863 158.4432,662.97661 271.47476,714.1912 390.18062,704.02675 Z m -30.15678,-21.70058 c -1.46004,-2.39419 -2.65686,-4.78859 -2.65961,-5.3209 -0.002,-0.53231 -4.55453,-11.68286 -10.11505,-24.77901 -7.19512,-16.94597 -11.25069,-24.80473 -14.06632,-27.25724 -2.17594,-1.89532 -3.95627,-3.8542 -3.95627,-4.35307 0,-1.18357 27.40771,-1.18532 28.59143,-10e-4 0.49795,0.49786 -0.35796,2.24969 -1.90203,3.89297 l -2.80739,2.98778 8.30761,21.00007 c 4.56919,11.55004 8.76009,20.4967 9.31312,19.88148 1.01705,-1.13141 7.13753,-16.64427 12.85351,-32.57821 l 3.11726,-8.68973 -2.84216,-3.0248 c -1.56317,-1.66363 -2.38994,-3.47692 -1.83723,-4.02952 0.55271,-0.55261 5.77971,-1.22153 11.61557,-1.48651 11.91099,-0.54081 12.91093,0.38846 6.65323,6.18294 -2.7799,2.57412 -7.41345,11.83448 -15.57248,31.1223 -6.38828,15.10179 -12.21678,28.21123 -12.95221,29.13207 -0.73545,0.92085 -3.08074,1.67427 -5.21178,1.67427 -2.93372,0 -4.51924,-1.05709 -6.5292,-4.35307 z m -74.33585,-6.18108 c -14.0684,-4.0376 -13.85151,-3.87164 -9.54524,-7.30471 3.2989,-2.62999 4.436,-5.85431 9.74801,-27.64122 5.12145,-21.00533 5.7674,-25.12365 4.35463,-27.76297 -0.91237,-1.70447 -1.26771,-3.49012 -0.78964,-3.96809 0.78614,-0.78601 23.69504,4.70111 23.69504,5.6754 0,0.22631 -1.74497,2.09952 -3.87772,4.16271 -3.3452,3.23609 -4.64374,6.94015 -9.45565,26.97193 -5.18899,21.60157 -5.43236,23.44277 -3.49034,26.40613 4.31389,6.58263 2.40357,7.20404 -10.63909,3.46082 z m 153.38982,-1.74989 c 0,-0.86283 0.83091,-2.52035 1.84645,-3.68336 1.58698,-1.81744 1.05223,-5.03198 -3.80545,-22.87537 -3.10855,-11.41843 -6.05813,-22.40735 -6.55462,-24.41979 -0.54318,-2.20164 -2.55702,-4.51432 -5.05621,-5.80646 -5.15043,-2.66291 -3.95285,-4.03965 5.60369,-6.44199 16.58968,-4.17037 19.30869,-3.79468 15.49366,2.1407 -1.77296,2.75835 -1.54116,4.65995 2.41281,19.79408 7.59086,29.05458 8.75316,32.38043 11.57402,33.11795 4.48241,1.17197 2.8457,4.21825 -3.09417,5.75893 -3.13144,0.81222 -7.80346,2.03756 -10.38228,2.72296 -6.21172,1.65098 -8.0379,1.58107 -8.0379,-0.30765 z M 219.79807,652.63576 c -11.62274,-2.84043 -20.06355,-9.5004 -25.4694,-20.09589 -5.87809,-11.52107 -2.89851,-28.91791 6.75057,-39.41452 7.46797,-8.1239 21.11178,-11.2883 33.34309,-7.73321 7.93223,2.30554 21.98111,11.91611 25.68819,17.57278 2.0396,3.11227 2.03926,3.67189 -0.005,7.70606 -1.21213,2.39253 -3.12695,5.40271 -4.25515,6.68929 -2.87137,3.27446 -5.66352,0.65654 -5.66352,-5.31013 0,-6.13533 -4.43641,-12.14191 -11.25449,-15.23775 -6.62433,-3.00784 -11.04556,-3.17712 -17.04946,-0.65274 -18.09155,7.60674 -21.30504,35.35529 -5.32408,45.97355 5.17594,3.43906 15.1329,4.07255 22.44715,1.42817 5.46133,-1.97449 6.67943,-0.95678 3.911,3.26759 -4.12712,6.29764 -12.50279,8.40132 -23.11934,5.8068 z m 275.53032,-5.13414 c -2.56669,-4.2089 -3.70735,-11.14027 -1.65987,-10.08652 9.24957,4.7604 11.60004,5.25851 17.29313,3.66483 11.42957,-3.19949 16.1587,-12.36934 9.70628,-18.8206 -3.05788,-3.05733 -5.95267,-3.04078 -20.20887,0.1156 -9.72133,2.15233 -16.04547,0.93397 -21.03225,-4.05192 -12.10878,-12.10658 -2.56604,-31.12222 18.88784,-37.63745 5.07518,-1.54127 9.3935,-2.58317 9.59625,-2.31538 5.85545,7.73424 7.5269,10.61732 7.5269,12.98318 v 2.86754 l -4.35386,-2.65412 c -5.30964,-3.23676 -10.48194,-3.37811 -16.64346,-0.4548 -5.96371,2.82945 -9.03304,7.4398 -7.91585,11.89022 1.46794,5.84766 5.93122,6.77424 19.9316,4.13781 6.79667,-1.27989 13.55723,-1.93449 15.02344,-1.45463 6.35872,2.08103 9.09507,4.2006 11.49498,8.90392 7.11095,13.93608 -2.2866,28.3318 -22.58759,34.601 -11.30887,3.49232 -11.94252,3.42127 -15.05867,-1.68864 z M 338.60413,597.45919 c -14.05952,-1.74997 -42.23317,-7.93532 -54.70931,-12.01109 -16.69946,-5.45547 -42.84041,-17.77514 -56.74817,-26.7442 -30.94452,-19.95605 -66.71584,-55.68235 -66.71584,-66.63187 0,-2.81628 -0.77248,-4.07759 -2.82607,-4.61451 -2.55639,-0.6684 -2.74195,-1.37295 -1.94449,-7.3834 1.35151,-10.18637 6.71796,-22.99092 14.05635,-33.53902 4.72814,-6.79617 6.2576,-10.02191 5.29925,-11.17643 -2.77274,-3.34036 8.69979,-20.45404 26.0424,-38.8477 5.65357,-5.9962 10.27921,-11.49445 10.27921,-12.21831 0,-0.72387 -2.41137,-1.70167 -5.35859,-2.17285 -2.94723,-0.47119 -5.35277,-1.30165 -5.34566,-1.84546 0.007,-0.54379 2.4185,-6.9722 5.3586,-14.28536 2.94012,-7.31316 5.34565,-13.86279 5.34565,-14.55475 0,-0.69198 -1.52149,-0.96731 -3.38109,-0.61191 -1.8596,0.35544 -3.71301,0.10933 -4.1187,-0.54703 -1.48567,-2.40341 3.74199,-20.54064 8.89805,-30.87156 5.84216,-11.70567 6.20442,-13.11571 3.36959,-13.11571 -1.06173,0 -2.34181,-0.66553 -2.84462,-1.47893 -0.94562,-1.5298 6.80284,-13.37404 15.73738,-24.05598 2.81238,-3.36244 5.11343,-6.64878 5.11343,-7.30297 0,-0.65419 -1.76673,-3.02634 -3.92607,-5.27142 -6.7119,-6.97844 -10.94266,-17.16708 -11.79223,-28.3984 -0.86425,-11.42523 0.41473,-13.57205 6.27921,-10.53995 5.45759,2.8217 17.42402,5.83127 26.35819,6.62907 7.68403,0.68619 8.54438,0.46798 13.39649,-3.39757 2.85182,-2.27196 7.8979,-5.68612 11.21354,-7.587 3.31563,-1.90088 6.26504,-3.63569 6.55422,-3.85512 0.28921,-0.21943 -0.16079,-1.22614 -1.00001,-2.23712 -1.17156,-1.41141 -0.9826,-2.32727 0.81384,-3.94481 4.7513,-4.27807 17.18269,-9.45657 26.05395,-10.85319 5.24627,-0.82594 8.88844,-2.02299 8.56033,-2.81348 -0.31413,-0.75674 -2.17763,-6.04707 -4.14112,-11.75628 l -3.57002,-10.38039 h -4.9505 c -5.8316,0 -10.14965,-2.69036 -12.92238,-8.05123 -5.6855,-10.99254 1.97072,-22.75511 14.81123,-22.75511 7.23045,0 13.99888,7.06762 13.99888,14.6177 0,3.03035 -0.6946,6.62177 -1.54356,7.98091 -1.25113,2.003 -0.71756,4.47362 2.81638,13.04102 2.39796,5.81342 4.7686,11.01003 5.26812,11.54798 0.49951,0.53796 5.41127,-0.88632 10.91503,-3.16507 15.60055,-6.4592 27.96263,-5.34689 39.65252,3.56781 2.38513,1.81888 5.19978,3.30707 6.25479,3.30707 3.62467,0 8.74064,-5.37356 13.69407,-14.38356 l 4.96115,-9.02407 -2.27799,-6.33373 c -1.89608,-5.27186 -2.01036,-7.14451 -0.68168,-11.16974 2.86013,-8.66469 13.91609,-12.54691 22.73971,-7.98486 5.5751,2.88248 8.05268,7.13869 8.05268,13.83368 0,4.88212 -0.76217,6.62526 -4.5548,10.41721 -3.09221,3.09165 -5.80615,4.55399 -8.45168,4.55399 -5.76525,0 -7.80825,2.30362 -11.65256,13.13902 -1.91048,5.38479 -3.47359,9.97893 -3.47359,10.20921 0,0.23029 2.40513,0.80322 5.34473,1.27319 14.00716,2.23943 30.8258,12.2662 30.8258,18.37743 0,1.60854 1.72022,3.22362 4.80692,4.51307 2.64381,1.10447 7.20636,3.90817 10.13902,6.23044 5.08409,4.02594 5.73565,4.18465 14.00856,3.41226 4.77206,-0.44555 13.88499,-2.60505 20.25098,-4.79891 6.36598,-2.19386 12.0658,-3.68526 12.66628,-3.31423 1.9661,1.21491 1.14481,14.84081 -1.3842,22.96509 -2.40195,7.71609 -8.54087,18.10982 -12.76805,21.61742 -1.8285,1.51724 -1.42683,2.59596 3.39823,9.12622 6.24841,8.45664 14.38749,25.28672 15.47803,32.00568 0.58558,3.60795 0.28783,4.5423 -1.44752,4.5423 -2.84075,0 -2.75917,0.98697 0.66785,8.07875 6.12993,12.68526 10.61137,30.08282 8.59095,33.35136 -0.63254,1.02329 -1.67147,1.01941 -3.60169,-0.0134 -1.49202,-0.79833 -3.06439,-1.09996 -3.49419,-0.67023 -0.42978,0.42971 0.86694,5.4511 2.88164,11.15861 5.59738,15.85712 5.47208,15.06524 2.38353,15.06524 -5.46948,0 -4.20536,2.82113 6.22511,13.89252 15.2716,16.21 23.51646,28.18794 23.6721,34.39027 0.0777,3.09747 2.52868,9.77928 6.4368,17.54801 6.50975,12.94038 12.69859,33.99976 11.16555,37.99409 -0.48274,1.25779 -1.71563,1.94156 -2.77082,1.5367 -1.48346,-0.56914 -1.74415,0.23749 -1.18673,3.67193 0.92281,5.68556 -1.35454,9.9532 -11.33531,21.2419 -36.34683,41.10981 -87.68626,69.59985 -142.96304,79.33519 -11.70155,2.06088 -51.47527,3.71541 -60.95404,2.5356 z m 49.54663,-10.61691 c 16.13673,-1.99739 21.31099,-3.19612 14.64489,-3.39279 -1.78062,-0.0525 1.88667,-1.53756 8.14953,-3.30007 12.78881,-3.59906 23.18788,-7.35236 22.44067,-8.09944 -0.27289,-0.27283 -3.47444,0.62762 -7.11455,2.00102 -3.64012,1.37339 -12.31627,3.87017 -19.28032,5.54841 -9.08915,2.19034 -11.92419,3.32884 -10.04737,4.03482 1.763,0.66318 0.43296,1.05546 -4.0837,1.20442 -13.08042,0.43142 -16.08422,0.72665 -16.78096,1.64931 -0.38785,0.51362 -1.59354,0.37216 -2.67929,-0.31433 -1.70468,-1.07784 -1.7087,-1.25099 -0.0295,-1.26872 1.06955,-0.0103 -3.56404,-3.69229 -10.29685,-8.18004 l -12.24148,-8.15954 -6.14141,4.22463 c -3.37778,2.32356 -5.81775,4.74822 -5.42216,5.38817 0.39557,0.63996 0.0134,1.5997 -0.84926,2.13276 -0.97957,0.60531 -1.2096,0.38862 -0.6126,-0.57715 1.35324,-2.1892 -0.75662,-1.91666 -4.28372,0.55336 -3.99344,2.79661 -11.59799,1.23996 -40.05548,-8.19938 -21.40094,-7.09868 -42.90946,-16.91121 -60.0197,-27.38192 -4.81842,-2.94864 -9.05156,-5.36118 -9.40698,-5.36118 -0.35544,0 -0.64623,1.19961 -0.64623,2.66579 0,3.94652 10.10665,10.808 31.48175,21.37319 21.50115,10.62748 36.65432,15.9347 57.60491,20.17547 27.74011,5.61506 49.28055,6.54967 75.66979,3.28321 z m -38.15961,-0.52726 c -1.47362,-0.58294 -3.50242,-0.75077 -4.50846,-0.37294 -1.34488,0.50509 -1.58699,-0.0759 -0.91446,-2.19447 0.54617,-1.72047 0.33857,-2.88142 -0.51522,-2.88142 -0.78647,0 -1.42993,0.47447 -1.42993,1.05438 0,0.5799 -1.29605,1.15198 -2.88011,1.27129 l -2.8801,0.21691 2.8801,-2.01695 c 1.58406,-1.10931 2.91347,-2.73617 2.95423,-3.61524 0.0408,-0.87907 1.932,-3.06879 4.20275,-4.86603 l 4.12861,-3.26772 2.37533,2.93287 c 1.30642,1.61308 3.15056,2.93287 4.09806,2.93287 2.54295,0 12.46463,7.18326 10.72325,7.76361 -0.81864,0.27283 -1.48844,1.34994 -1.48844,2.39355 0,1.40806 -1.81412,1.87321 -7.03316,1.80335 -3.86823,-0.0517 -8.23884,-0.57111 -9.71245,-1.15406 z m -2.6793,-8.12763 c 0.45537,-0.73668 0.18953,-1.33941 -0.59075,-1.33941 -0.7803,0 -1.41872,0.60273 -1.41872,1.33941 0,0.73667 0.26584,1.3394 0.59075,1.3394 0.32492,0 0.96335,-0.60273 1.41872,-1.3394 z m -33.07258,3.10324 c 0.96705,-0.38691 2.1225,-0.33933 2.56766,0.10567 0.44515,0.44507 -0.34609,0.76163 -1.75829,0.70347 -1.56063,-0.0643 -1.87805,-0.38164 -0.80937,-0.80921 z m 108.27798,-1.15647 c 13.73927,-3.94739 30.37219,-10.15971 39.99349,-14.93736 14.20804,-7.05532 29.9926,-17.05767 30.60333,-19.39273 0.79768,-3.04977 0.61887,-3.04103 -5.90958,0.28893 -3.20674,1.63567 -4.98206,3.3295 -4.42841,4.22516 0.54799,0.88651 0.31892,1.12104 -0.56281,0.57619 -0.81781,-0.50535 -7.39152,2.02734 -14.60822,5.6282 -7.2167,3.60085 -17.34117,8.20903 -22.49882,10.2404 -11.59872,4.56823 -12.16592,5.06152 -4.63848,4.03417 9.66531,-1.31914 3.68855,1.35181 -16.26618,7.26923 -9.86984,2.92682 -16.95763,5.35684 -15.75064,5.40007 1.207,0.0432 7.53684,-1.45629 14.06632,-3.33226 z M 449.795,567.67555 c 0,-0.62478 2.56209,-2.19348 5.69351,-3.48601 3.13143,-1.29251 6.74848,-2.89599 8.03789,-3.56328 1.42654,-0.73825 2.34439,-0.72287 2.34439,0.0393 0,0.68891 -3.38848,2.80359 -7.52995,4.69926 -8.43529,3.86112 -8.54584,3.89101 -8.54584,2.31073 z m 20.6857,-10.17506 c 1.43024,-1.14566 3.18853,-2.083 3.90731,-2.083 1.70208,0 0.94209,0.61866 -3.15862,2.57126 -3.15792,1.50369 -3.20066,1.4758 -0.74869,-0.48826 z m 52.73408,-34.89673 c 5.81515,-5.46949 13.07553,-13.18765 16.13415,-17.1515 4.82997,-6.2594 5.56115,-8.09311 5.56115,-13.94671 0,-3.70687 -0.87752,-9.22647 -1.95004,-12.26578 -1.07483,-3.04583 -1.37546,-5.52603 -0.66983,-5.52603 0.70412,0 1.28022,0.58152 1.28022,1.29228 0,0.71076 1.29583,1.98566 2.87963,2.83313 2.74456,1.46858 2.84347,1.31809 2.10888,-3.20784 -1.15267,-7.10172 -12.2452,-28.49488 -19.07679,-36.79164 -6.93944,-8.42774 -7.45113,-10.31867 -2.45291,-9.06442 l 3.55352,0.89173 -2.41791,-3.76018 c -4.19262,-6.52004 -14.96628,-19.62539 -20.67646,-25.15134 -5.42773,-5.25262 -5.54075,-5.29088 -9.15389,-3.09895 -4.67973,2.83898 -5.37434,5.53943 -5.53719,21.52738 -0.10598,10.40191 0.96764,18.4902 5.19707,39.15416 5.63652,27.53875 8.7557,59.38401 7.14687,72.96581 l -0.8518,7.19072 4.17615,-2.97313 c 2.29688,-1.63523 8.93401,-7.44819 14.74918,-12.91769 z m -311.66282,-7.70148 c -0.52742,-25.21349 0.91563,-38.0857 7.39538,-65.96755 2.83924,-12.21706 4.95766,-25.35636 5.40526,-33.52575 l 0.7361,-13.43469 -4.77677,-3.64274 c -2.62721,-2.00352 -5.15298,-3.64275 -5.61282,-3.64275 -1.50774,0 -19.77469,20.01852 -25.71491,28.18063 -5.0698,6.96613 -5.46675,7.98332 -3.11543,7.98332 1.48207,0 2.69466,0.32042 2.69466,0.71205 0,0.39162 -3.24821,5.0628 -7.21828,10.38039 -3.97005,5.31759 -8.42486,12.07928 -9.8996,15.02597 -2.96092,5.91636 -7.24745,19.42138 -6.16439,19.42138 0.37785,0 2.75334,-1.57577 5.27885,-3.50173 l 4.59186,-3.50173 -2.82297,6.38063 c -5.88861,13.30977 -1.97116,22.54045 17.99909,42.41117 8.43543,8.39337 20.17711,18.46817 21.54539,18.48674 0.0737,10e-4 -0.071,-9.79341 -0.32142,-21.76534 z M 366.57865,473.4937 c 12.67993,-7.58366 17.43003,-10.98318 16.79103,-12.01692 -0.38297,-0.61953 0.0906,-0.82451 1.05238,-0.45551 0.96177,0.369 4.67578,-1.74746 8.25335,-4.70326 3.57755,-2.95579 6.89115,-5.39719 7.36352,-5.42534 0.4724,-0.0281 4.47593,-3.40689 8.89678,-7.50833 4.42084,-4.10143 6.76481,-6.81409 5.20884,-6.0281 -1.55599,0.78598 -4.87162,1.66136 -7.36808,1.94527 -2.49645,0.28392 -9.06032,2.78878 -14.58637,5.56633 l -10.04738,5.05011 3.30141,-3.84012 c 1.81577,-2.11206 6.03166,-6.40174 9.36864,-9.5326 5.10087,-4.78582 6.94239,-5.69248 11.56194,-5.69248 5.34088,0 13.0888,-4.16213 25.00012,-13.42988 3.41786,-2.65931 3.6806,-2.68899 3.63656,-0.41075 -0.0261,1.35064 -0.90901,3.96252 -1.962,5.8042 -1.05299,1.84168 -1.9359,3.77914 -1.962,4.30547 -0.0804,1.62005 12.1105,-4.15491 16.53639,-7.83348 5.71942,-4.75369 13.22334,-16.10742 13.22334,-20.00746 0,-1.76209 0.5517,-2.86287 1.226,-2.44622 0.68546,0.42357 0.83066,4.25137 0.32933,8.68171 -1.04466,9.23186 0.31742,10.11967 5.36819,3.49897 4.46945,-5.85868 7.36346,-13.00165 7.96274,-19.6536 0.65662,-7.28839 2.37787,-7.33 4.46921,-0.10795 2.4313,8.39596 3.85194,9.21532 5.79127,3.34016 1.58867,-4.81282 1.10642,-19.6702 -0.83046,-25.58532 -0.44238,-1.351 1.43076,0.1235 4.16252,3.27652 5.9555,6.874 12.7154,10.95205 12.7154,7.6708 0,-4.3002 -9.54169,-31.35369 -12.69902,-36.00541 -1.81281,-2.67091 -2.95507,-4.85616 -2.53837,-4.85616 1.46003,0 8.53915,4.60539 8.53915,5.5552 0,0.52769 1.87599,2.29501 4.16886,3.92738 l 4.16888,2.96797 -0.96231,-4.55102 c -1.72989,-8.18112 -9.05369,-24.29757 -14.96362,-32.92833 -3.18477,-4.651 -5.5667,-8.45634 -5.29317,-8.45634 1.61008,0 10.15668,4.20063 10.85934,5.33733 0.46226,0.74784 1.41585,1.3597 2.11906,1.3597 3.65202,0 -10.01807,-22.85138 -18.79776,-31.42293 -6.31401,-6.16437 -6.61688,-7.66237 -2.04386,-10.10934 3.38912,-1.81347 12.23349,-12.53932 15.42755,-18.70946 2.04114,-3.943 4.01679,-12.08617 2.93227,-12.08617 -0.41961,0 -5.02816,1.44998 -10.2412,3.22221 -5.21304,1.7722 -13.22172,3.63676 -17.79708,4.14346 -8.26594,0.91541 -8.35959,0.88729 -14.73613,-4.42222 -8.63878,-7.19322 -21.25208,-13.30146 -32.8958,-15.93047 -9.55462,-2.15731 -9.58418,-2.17771 -5.62962,-3.88322 2.18651,-0.94298 5.78399,-2.10527 7.99441,-2.58288 l 4.01895,-0.86839 -4.01895,-2.1248 c -5.09894,-2.6958 -23.31444,-3.88274 -27.25205,-1.77576 -3.58785,1.91981 -3.64037,0.68988 -0.21066,-4.93429 l 2.66935,-4.37736 -3.55729,0.89266 c -1.95651,0.49098 -5.98916,2.27374 -8.96146,3.96172 -5.21947,2.9642 -8.49508,3.13822 -6.77781,0.3601 1.04212,-1.68586 -3.9748,-7.11184 -10.04224,-10.86103 -3.99858,-2.47082 -21.46195,-6.90204 -22.6236,-5.7406 -0.22825,0.2282 1.62315,1.67432 4.11423,3.21361 3.91959,2.42199 8.62159,9.05511 7.33251,10.34396 -0.24,0.23995 -2.82465,-0.41422 -5.74366,-1.4537 -2.91904,-1.03948 -8.24113,-1.91643 -11.82689,-1.94877 -5.91371,-0.0533 -6.44282,0.19016 -5.69351,2.62002 2.71507,8.80452 2.81821,8.25954 -1.34395,7.10116 -7.34879,-2.04523 -24.90564,-1.20413 -30.65138,1.46843 l -5.3586,2.49249 6.36334,2.07086 c 3.49982,1.13895 6.36332,2.48937 6.36332,3.00091 0,0.51151 -2.69312,1.23355 -5.98472,1.60449 -9.01145,1.01553 -25.16891,9.29389 -33.48205,17.15469 -4.00045,3.78276 -7.82087,6.53952 -8.48983,6.12616 -0.66897,-0.41337 -5.67559,-1.43858 -11.12582,-2.27823 -5.45023,-0.83966 -12.77301,-2.60917 -16.27283,-3.93225 -5.84273,-2.20879 -6.36326,-2.22436 -6.36228,-0.19033 0.005,7.14324 12.4208,24.97908 20.30428,29.16422 1.89388,1.00541 0.98406,2.72355 -6.19238,11.69369 -9.48332,11.85363 -15.24597,21.24115 -12.51756,20.39142 0.96455,-0.30038 3.56225,-0.94389 5.77266,-1.42999 l 4.01895,-0.88385 -3.48681,3.78563 c -7.79289,8.46077 -18.57403,27.52393 -18.60431,32.89604 -0.014,2.48655 -0.0913,2.50564 12.71358,-3.14242 6.42765,-2.83518 6.86766,-2.86816 3.7806,-0.28339 -5.49938,4.60458 -13.70135,23.0009 -17.11119,38.3789 -0.76854,3.46602 -0.57812,3.71052 2.22614,2.8582 1.6866,-0.51261 4.87508,-2.28036 7.0855,-3.92833 l 4.01895,-2.9963 0.0354,10.18364 c 0.0194,5.601 0.70406,11.34175 1.52141,12.75719 1.38155,2.39253 1.64842,2.25968 3.79387,-1.88841 l 2.30779,-4.46196 2.48504,7.05527 c 2.76898,7.86134 7.94088,15.33136 12.1883,17.60408 2.70979,1.44998 2.7678,1.29237 1.84237,-5.00478 -0.93629,-6.37117 -0.90591,-6.44803 1.51111,-3.8231 1.35664,1.47335 3.20243,4.33524 4.10176,6.35976 3.18048,7.15981 18.9486,21.70611 21.14685,19.50825 0.2464,-0.24636 -0.62125,-3.60582 -1.9281,-7.46548 -1.30691,-3.85967 -2.14107,-7.01758 -1.85373,-7.01758 0.28734,0 2.15395,1.54993 4.14799,3.44429 5.38493,5.11567 20.05243,12.1574 31.64865,15.19419 5.6264,1.47341 10.68445,2.95988 11.24013,3.30325 1.87771,1.16028 11.35444,15.62735 10.67909,16.30258 -0.36843,0.36837 -3.91922,-1.53719 -7.89064,-4.23457 -6.39671,-4.34465 -20.66994,-9.62454 -22.11431,-8.18043 -0.84713,0.84698 13.29448,13.58987 24.13346,21.74645 11.03257,8.30228 28.97051,18.05511 33.2079,18.05511 1.5312,0 4.9651,-1.30448 7.6309,-2.89884 z m 31.91592,-28.34094 c -0.57215,-1.49067 0.33169,-2.31306 3.24531,-2.95288 4.69895,-1.03188 6.4418,0.0437 3.89578,2.40411 -1.41455,1.31145 -1.58692,1.30685 -0.83638,-0.0224 0.57451,-1.0174 0.15216,-1.67426 -1.07654,-1.67426 -1.11208,0 -2.56494,0.97007 -3.22859,2.15572 -1.07317,1.9173 -1.29432,1.92722 -1.99958,0.0896 z m -51.85255,-60.02135 c -11.51725,-1.88793 -24.77729,-9.14189 -41.62602,-22.77165 -8.5266,-6.89758 -18.02398,-14.28236 -21.10532,-16.41062 -6.87083,-4.74564 -11.98798,-12.37033 -9.78219,-14.57573 1.11612,-1.1159 2.63671,-0.41821 5.86339,2.69032 15.34588,14.78399 47.69822,25.03132 78.70698,24.9298 30.9563,-0.10143 60.90329,-8.6372 75.01124,-21.3806 2.88932,-2.60984 5.6211,-5.90375 6.07061,-7.3198 1.44873,-4.56368 7.57111,-2.94403 9.25419,2.44815 0.75412,2.41605 0.42296,3.01367 -1.66991,3.01367 -1.43582,0 -4.26203,2.16477 -6.28048,4.8106 -2.01844,2.64586 -9.47481,9.08799 -16.5697,14.31589 -7.09489,5.2279 -15.43516,11.70451 -18.53392,14.3925 -16.03736,13.91143 -37.01372,19.51707 -59.33887,15.85747 z m 38.29722,-9.10813 c 11.31403,-5.00383 6.72727,-6.06032 -25.26264,-5.81889 -34.51043,0.26047 -31.78966,0.12686 -31.78966,1.56191 0,1.64553 8.27976,5.41345 15.09411,6.86896 10.01461,2.13905 34.6888,0.60303 41.95819,-2.61198 z m 95.18029,5.93348 c -0.42248,-1.10078 -0.21981,-2.00142 0.45039,-2.00142 1.81596,0 2.94362,2.38025 1.5389,3.24827 -0.67162,0.415 -1.56681,-0.14607 -1.98929,-1.24685 z M 301.57749,327.76372 c -16.69574,-9.57401 -18.70685,-33.6874 -3.89413,-46.69076 6.2381,-5.47614 9.9333,-6.93067 17.60715,-6.93067 7.61611,0 13.53481,2.48367 19.04333,7.99118 17.73615,17.73295 5.21896,49.63903 -19.45511,49.5907 -4.63779,-0.009 -8.32533,-1.10706 -13.30124,-3.96045 z m 27.77607,-4.15382 c 5.95483,-4.23945 9.76538,-12.61339 9.82508,-21.59133 0.042,-6.33248 -0.62677,-8.59264 -3.96387,-13.39406 -14.48677,-20.84347 -43.49836,-10.97832 -43.49836,14.79124 0,12.04893 7.37551,22.03689 17.90399,24.2457 5.78594,1.21387 14.99226,-0.67635 19.73316,-4.05155 z m -16.20277,-6.99322 c -5.05733,-2.5467 -8.63003,-10.10141 -7.53555,-15.9344 2.63673,-14.05246 18.98456,-16.61465 24.12072,-3.78044 3.1435,7.85494 0.5748,16.10065 -6.08899,19.546 -4.47418,2.31327 -6.18311,2.34077 -10.49618,0.16884 z m 7.25851,-15.15988 c 2.63993,-1.01285 2.78187,-5.34312 0.20752,-6.33081 -2.44985,-0.93992 -5.32369,2.47339 -4.30881,5.11766 0.87445,2.27838 1.12876,2.35361 4.10129,1.21315 z m 67.56398,26.42415 c -24.04488,-15.24601 -14.16873,-53.73866 13.78785,-53.73866 13.76826,0 24.58789,8.80286 27.92765,22.72197 1.30552,5.44105 1.22029,7.84884 -0.48548,13.71544 -5.37906,18.49997 -25.81494,27.07544 -41.23002,17.30125 z m 27.16077,-3.56223 c 7.56884,-4.8555 11.19995,-11.81272 11.20926,-21.47702 0.0264,-27.39972 -34.91611,-35.40277 -46.35737,-10.61743 -3.14388,6.81066 -3.14892,14.58542 -0.0139,21.48589 2.8285,6.22578 9.46354,12.31362 14.66569,13.4562 1.96943,0.43257 4.18364,0.98617 4.92044,1.23025 2.94021,0.97397 10.9835,-1.13181 15.57588,-4.07789 z m -21.64113,-8.25854 c -6.93435,-4.77843 -9.09223,-11.26538 -6.11628,-18.38652 3.95573,-9.4657 14.08632,-11.82287 20.10033,-4.67692 6.02996,7.16489 3.90878,20.20562 -3.86243,23.74576 -4.66934,2.12711 -6.19378,2.02435 -10.12162,-0.68232 z m 8.13051,-15.86671 c 1.41984,-1.71047 1.35336,-2.44642 -0.37722,-4.17669 -2.43346,-2.43302 -5.03717,-1.35237 -5.03717,2.09063 0,4.38821 2.65449,5.41094 5.41439,2.08606 z m -110.9174,-37.10128 c 1.34285,-4.06892 11.35088,-9.26087 19.22783,-9.97499 7.78893,-0.70615 17.95308,1.89407 17.95308,4.59281 0,0.61418 -4.11286,0.88433 -9.13969,0.60033 -7.51221,-0.42439 -10.69167,0.10452 -17.85546,2.96989 -9.90128,3.96041 -10.95676,4.14817 -10.18576,1.81196 z m 125.59774,-1.90088 c -8.26481,-3.21616 -17.70978,-3.77867 -26.79297,-1.59572 -4.20148,1.00974 -1.79058,-3.60991 2.6793,-5.13394 10.61301,-3.61855 24.70826,-0.78213 31.53939,6.34675 4.54143,4.73935 3.85972,4.77451 -7.42572,0.38291 z M 309.03603,170.3879 c 4.72021,-2.44048 5.72038,-4.91433 3.99156,-9.87274 -1.49871,-4.2984 -6.61177,-7.29846 -10.2432,-6.01014 -7.45516,2.64485 -9.1423,9.17428 -3.7608,14.5548 3.82808,3.82739 4.90272,3.96993 10.01244,1.32808 z m 111.2345,-0.97181 c 5.70663,-6.12424 1.65393,-14.92738 -6.87211,-14.92738 -4.6396,0 -9.15149,4.28543 -9.15149,8.69217 0,3.67255 5.95416,9.16657 9.93429,9.16657 1.8468,0 4.58701,-1.31911 6.08931,-2.93136 z m 156.00491,57.59758 c -1.25566,-2.44118 -4.90528,-7.36356 -8.11025,-10.93864 -6.30433,-7.03229 -6.43455,-9.54069 -0.42686,-8.22142 3.43671,0.75469 4.09445,0.29685 6.58458,-4.58331 l 2.76646,-5.42174 -8.19227,-11.07629 c -4.50576,-6.09197 -8.77617,-11.29198 -9.48979,-11.55555 -0.71362,-0.26359 -3.96602,0.53967 -7.22754,1.78503 -5.14094,1.96299 -5.93004,2.78426 -5.93004,6.17173 0,5.29539 -2.00733,4.91187 -5.83785,-1.11533 -1.7557,-2.76253 -4.46183,-6.15811 -6.01364,-7.54574 -3.87733,-3.46712 -2.59172,-4.69843 4.85002,-4.64512 6.47743,0.0463 52.45915,-13.4175 56.07773,-16.4201 1.00672,-0.83535 1.83041,-2.34913 1.83041,-3.36393 0,-3.48745 3.68634,-1.83573 9.16448,4.10626 l 5.48678,5.95137 -5.79705,12.46546 c -3.18839,6.85601 -9.56722,19.97543 -14.17517,29.15431 -4.60795,9.17885 -8.76241,19.37517 -9.23217,22.65848 -1.0637,7.43491 -3.35486,8.37432 -6.32783,2.59453 z m 17.54613,-63.80452 c -0.93099,-0.93082 -24.89861,8.16725 -24.50804,9.3032 0.20902,0.60799 3.0868,4.81722 6.39504,9.35383 l 6.01499,8.2484 6.30804,-13.19372 c 3.46944,-7.25654 6.07492,-13.42682 5.78997,-13.71171 z m -456.83462,44.46308 c -8.43763,-2.12503 -12.28034,-3.99293 -17.01773,-8.27211 -7.54186,-6.81236 -10.75236,-13.8874 -11.50066,-25.34414 -0.55164,-8.44579 -0.19186,-10.57509 2.82888,-16.74258 4.01214,-8.19159 11.88664,-16.23559 22.34038,-22.82122 l 7.36807,-4.64172 5.85685,6.57494 c 6.31243,7.0864 6.44205,8.70109 0.56887,7.086 -11.69981,-3.21742 -22.72638,3.36126 -25.96958,15.49396 -2.11911,7.92754 -0.81335,14.34562 4.51773,22.20565 14.35241,21.16092 46.50789,13.54643 46.50789,-11.01317 0,-6.9699 3.35149,-9.01233 7.13098,-4.3457 4.79021,5.91457 0.11481,20.68135 -9.63423,30.42859 -8.62005,8.61849 -23.54699,13.77162 -32.99745,11.3915 z m 367.73367,-54.28421 c -4.78924,-3.66678 -8.89161,-7.17852 -9.11638,-7.80384 -0.22475,-0.62532 0.84488,-1.53471 2.37695,-2.02089 3.41808,-1.08466 10.05397,-9.79597 23.463,-30.80118 9.1151,-14.278786 10.15431,-16.558039 9.39488,-20.605465 -1.03589,-5.520673 -0.74092,-5.44671 12.54294,3.14502 9.69515,6.270625 11.30224,9.021355 5.74758,9.837655 -3.31166,0.48667 -8.17637,6.70633 -24.14399,30.86866 -8.85023,13.39224 -10.62473,16.9153 -9.54034,18.94114 3.93968,7.36003 0.22021,6.81862 -10.72464,-1.5611 z m -300.48081,4.71957 c -0.46529,-0.4652 -0.20232,-2.04827 0.58436,-3.51795 1.87588,-3.50443 1.40168,-4.44736 -14.13448,-28.10675 -10.27156,-15.64218 -13.71937,-19.91069 -16.589,-20.53782 -5.78178,-1.26353 -6.97164,-1.75576 -6.97164,-2.88406 0,-1.32427 20.60216,-13.756722 22.79666,-13.756722 1.06579,0 1.31029,1.183864 0.72559,3.513078 -0.93104,3.708895 5.19105,15.024474 20.92617,38.678204 5.95875,8.95747 7.82717,10.8251 11.38971,11.38495 5.5388,0.8704 4.13826,2.76055 -7.70416,10.39733 -9.29349,5.99306 -9.68716,6.16555 -11.02321,4.82974 z m 263.0813,-26.42637 -7.25741,-2.91248 -3.92834,-14.70944 c -4.35762,-16.316939 -5.29578,-18.057977 -9.73052,-18.057977 -2.55853,0 -3.52295,1.364382 -5.8644,8.296507 -3.38093,10.00967 -3.44209,11.54649 -0.58517,14.70277 2.07439,2.29179 2.05283,2.44577 -0.33491,2.39255 -4.615,-0.1028 -21.29911,-6.44319 -21.67624,-8.23747 -0.20301,-0.96592 0.94223,-2.35783 2.545,-3.09311 2.2864,-1.04891 4.81218,-6.86799 11.72543,-27.013776 8.41685,-24.527379 8.7076,-25.791427 6.49471,-28.236207 -2.54814,-2.815157 -1.85759,-4.351057 1.95623,-4.351057 3.96324,0 30.72027,9.084867 36.55271,12.410805 10.41079,5.936747 13.9605,16.000442 9.18947,26.052815 -2.37857,5.011561 -8.73582,9.728263 -13.16881,9.770482 -6.36974,0.06072 -6.56802,1.575098 -2.03706,15.557518 2.35691,7.27332 5.13583,14.17575 6.17539,15.33878 5.07126,5.67353 0.9888,6.52172 -10.05608,2.08929 z m -2.13442,-41.032093 c 4.67777,-1.778157 9.26305,-11.802274 7.50883,-16.415417 -2.42454,-6.375852 -14.63649,-13.981594 -17.47365,-10.882784 -1.21346,1.325353 -8.10616,21.812074 -8.10616,24.093374 0,0.813657 2.56208,2.095361 5.6935,2.848251 7.75427,1.864299 8.36486,1.881898 12.37748,0.356576 z M 245.71887,132.60882 c -0.49281,-0.49273 0.15318,-2.05501 1.43555,-3.47175 2.23189,-2.46578 1.99811,-3.55845 -5.46792,-25.5574 -10.56802,-31.138984 -10.25029,-30.413035 -13.92152,-31.808578 -5.3402,-2.029963 -2.80476,-4.330177 9.75353,-8.848579 27.62537,-9.939485 38.61605,-10.818072 44.43381,-3.55198 4.64563,5.802142 5.35624,12.126546 2.04222,18.175656 -2.39938,4.379599 -2.48389,5.061076 -0.62769,5.061076 1.17977,0 4.63493,1.205099 7.6781,2.678025 9.346,4.52349 12.80798,16.22106 7.41699,25.06104 -4.02003,6.59192 -11.15512,10.50004 -31.226,17.1035 -19.48791,6.41164 -20.11405,6.56176 -21.51707,5.15899 z m 27.68921,-14.35186 c 3.97179,-1.75619 8.20886,-4.6026 9.41576,-6.32535 4.81106,-6.86751 0.67279,-18.893051 -7.088,-20.597302 -3.44867,-0.757315 -14.67712,1.712267 -19.09705,4.200214 -1.31233,0.73871 7.55868,25.915508 9.1313,25.915508 0.22913,0 3.66623,-1.43688 7.63799,-3.19307 z M 261.10299,87.405752 c 7.47961,-3.124609 9.78655,-6.813984 9.3333,-14.926323 -0.24273,-4.344516 -5.08757,-8.623851 -9.76349,-8.623851 -5.36816,0 -14.50446,2.74276 -14.50446,4.354305 0,3.494701 7.27355,21.094405 8.71784,21.094405 0.91968,0 3.71725,-0.854332 6.21681,-1.898536 z m 70.46799,22.339218 c -8.06518,-0.506 -9.61609,-1.91049 -4.89769,-4.43523 1.54293,-0.8256 4.02807,-4.31252 5.52252,-7.748708 1.49446,-3.43621 6.95365,-15.828237 12.13153,-27.537874 7.80452,-17.649701 9.15093,-21.711913 7.87398,-23.756273 -0.84719,-1.35632 -1.54035,-3.076958 -1.54035,-3.823615 0,-1.473601 21.73143,-1.953529 23.17345,-0.511776 0.46529,0.4652 0.22175,2.011975 -0.5412,3.437284 -1.10568,2.065607 0.41449,7.126008 7.49144,24.937747 11.61897,29.243442 13.83269,33.972215 16.9138,36.129915 4.43981,3.10919 1.43343,4.29834 -10.86696,4.29834 -12.20884,0 -15.65434,-1.40252 -11.28783,-4.5948 2.27054,-1.65997 2.26096,-2.06072 -0.21373,-8.951865 l -2.5907,-7.214118 -12.84899,-0.380944 -12.84901,-0.380956 -2.20908,5.783353 c -2.76818,7.24707 -2.76738,9.00852 0.006,11.03541 2.81824,2.06039 1.21116,4.78194 -2.62813,4.45067 -1.61433,-0.1393 -6.40149,-0.47075 -10.63812,-0.73656 z m 37.53759,-28.811961 c -0.32677,-0.92084 -2.30413,-6.6468 -4.39413,-12.724361 -2.09001,-6.07755 -4.1478,-11.046549 -4.57288,-11.042215 -0.7229,0.008 -9.48059,22.717934 -9.48059,24.585207 0,0.470598 4.28439,0.855625 9.52087,0.855625 7.04048,0 9.36609,-0.436178 8.92673,-1.674256 z"
       id="path1" />
  </g>
</svg>
